<svg xmlns="http://www.w3.org/2000/svg" viewBox="0 0 20 20"><defs><style>.cls-1{fill:#595959;}.cls-2{fill:#f2f2f2;}.cls-3{fill:#a5a5a5;}.cls-4{fill:#7f7f7f;}.cls-5{fill:#ccc;}</style></defs><g id="Layer_2" data-name="Layer 2"><g id="background--scatter"><g id="background--circles"><path class="cls-1" d="M20,3V2.67c-.08.12-.18.22-.27.33Z"/><path class="cls-2" d="M10.49,1c-.21.08-.43.14-.65.2A5.34,5.34,0,0,1,9.46,3h2.1A5.43,5.43,0,0,1,10.49,1Z"/><path class="cls-3" d="M10.49,1a5.43,5.43,0,0,0,1.07,2h8.17c.09-.11.19-.21.27-.33V2.18a2.1,2.1,0,0,1-.36,0A2.49,2.49,0,0,1,17.17,0H12A5.35,5.35,0,0,1,10.49,1Z"/><path class="cls-4" d="M9.85,1.11s0,0,0,.06c.22-.06.44-.12.65-.2A5.35,5.35,0,0,0,12,0H10.46A5.42,5.42,0,0,1,9.85,1.11Z"/><path class="cls-4" d="M19.64,2.21a2.1,2.1,0,0,0,.36,0V0H17.17A2.49,2.49,0,0,0,19.64,2.21Z"/><path class="cls-4" d="M9.85,1.11A5.42,5.42,0,0,0,10.46,0h-.7a5.47,5.47,0,0,1,.1,1S9.85,1.07,9.85,1.11Z"/><path class="cls-3" d="M7,3H9.46a5.34,5.34,0,0,0,.38-1.83s0,0,0-.06,0-.07,0-.11a5.47,5.47,0,0,0-.1-1H7Z"/><path class="cls-5" d="M20,16.47v-.94a5.71,5.71,0,0,1-.39.47A5.71,5.71,0,0,1,20,16.47Z"/><path class="cls-3" d="M13.33,4.39l-.21.11a1.49,1.49,0,0,1,0,.21,2.49,2.49,0,0,1-.25,1.09,5.12,5.12,0,0,1,.76,1.66,5.85,5.85,0,0,1,.84-.26,5.48,5.48,0,0,1,.83-2.3A5.51,5.51,0,0,1,13.33,4.39Z"/><path class="cls-4" d="M17.83,4.45a5.31,5.31,0,0,1-2.19.48c-.11,0-.21,0-.32,0a5.48,5.48,0,0,0-.83,2.3,5.55,5.55,0,0,1,1.15-.13,5.29,5.29,0,0,1,3.54,1.37A3.35,3.35,0,0,1,20,7.87V4.75c-.12,0-.23,0-.36,0A5.2,5.2,0,0,1,17.83,4.45Z"/><path class="cls-1" d="M18.14,10.86a3.32,3.32,0,0,1,1-2.42,5.29,5.29,0,0,0-3.54-1.37,5.55,5.55,0,0,0-1.15.13,5.85,5.85,0,0,0-.84.26,5.38,5.38,0,0,1,.21,1.4,5.31,5.31,0,0,1-.33,1.79h.11a3.79,3.79,0,0,1,3.79,3.79s0,.07,0,.11A5.29,5.29,0,0,1,19.61,16a5.71,5.71,0,0,0,.39-.47V13.85A3.36,3.36,0,0,1,18.14,10.86Z"/><path class="cls-3" d="M17.14,19.71a2.5,2.5,0,0,1,2.5-2.5,2.09,2.09,0,0,1,.36,0v-.78a5.71,5.71,0,0,0-.39-.47,5.29,5.29,0,0,0-2.19-1.46,3.77,3.77,0,0,1-3.78,3.67l-.26,0A5.24,5.24,0,0,1,12,20h5.14A2.58,2.58,0,0,1,17.14,19.71Z"/><path class="cls-4" d="M9.86,14.43a2.85,2.85,0,0,1,0-.42,5.4,5.4,0,0,1-.7.13,4.66,4.66,0,0,1,.71.83A4.93,4.93,0,0,1,9.86,14.43Z"/><path class="cls-4" d="M13.38,18.19a3.76,3.76,0,0,1-2.67-1.4A5.11,5.11,0,0,1,10.46,20H12A5.24,5.24,0,0,0,13.38,18.19Z"/><path class="cls-2" d="M13.53,10.65a5.31,5.31,0,0,0,.33-1.79,5.38,5.38,0,0,0-.21-1.4,5.12,5.12,0,0,0-.76-1.66,2.51,2.51,0,0,1-2.25,1.41A2.48,2.48,0,0,1,8.16,4.89s0,0,0,0a4.28,4.28,0,0,1-.61,1,5.3,5.3,0,0,1,.14,7.22,5.28,5.28,0,0,1,1.55,1A5.4,5.4,0,0,0,9.9,14,3.77,3.77,0,0,1,13.53,10.65Z"/><path class="cls-2" d="M18.14,10.86a3.36,3.36,0,0,0,1.86,3v-6a3.33,3.33,0,0,0-1.86,3Z"/><path class="cls-1" d="M13.64,10.64h-.11A3.77,3.77,0,0,0,9.9,14a2.85,2.85,0,0,0,0,.42,4.93,4.93,0,0,0,.05.54,5.14,5.14,0,0,1,.8,1.82,3.76,3.76,0,0,0,2.67,1.4l.26,0a3.77,3.77,0,0,0,3.78-3.67s0-.07,0-.11A3.79,3.79,0,0,0,13.64,10.64Z"/><path class="cls-1" d="M13.14,4.71a1.49,1.49,0,0,0,0-.21,5.29,5.29,0,0,1-2.62.71,5.3,5.3,0,0,1-2.18-.47c-.05.06-.11.1-.16.15a2.48,2.48,0,0,0,2.48,2.32,2.5,2.5,0,0,0,2.5-2.5Z"/><path class="cls-4" d="M17.14,19.71a2.58,2.58,0,0,0,0,.29H20V17.25a2.09,2.09,0,0,0-.36,0A2.5,2.5,0,0,0,17.14,19.71Z"/><path class="cls-4" d="M10.71,16.79A5.14,5.14,0,0,0,9.91,15a4.66,4.66,0,0,0-.71-.83,5.28,5.28,0,0,0-1.55-1,6.35,6.35,0,0,1-.65.62v2.57A5.35,5.35,0,0,1,9.76,20h.7a5.11,5.11,0,0,0,.25-3.21Z"/><path class="cls-3" d="M7,16.29V20H9.76A5.35,5.35,0,0,0,7,16.29Z"/><path class="cls-3" d="M9,9.57A5.32,5.32,0,0,0,7.51,5.88,4.7,4.7,0,0,1,7,6.37v7.35a6.35,6.35,0,0,0,.65-.62A5.34,5.34,0,0,0,9,9.57Z"/><path class="cls-2" d="M7,5.71v.66a4.7,4.7,0,0,0,.51-.49,4.28,4.28,0,0,0,.61-1A5.11,5.11,0,0,1,7,5.71Z"/><path class="cls-1" d="M17.83,4.45a5.2,5.2,0,0,0,1.81.34c.13,0,.24,0,.36,0V3h-.27A5.41,5.41,0,0,1,17.83,4.45Z"/><path class="cls-2" d="M8.32,4.74a5.3,5.3,0,0,0,2.18.47,5.29,5.29,0,0,0,2.62-.71l.21-.11A5.33,5.33,0,0,1,11.56,3H9.46A5.1,5.1,0,0,1,8.32,4.74Z"/><path class="cls-3" d="M13.33,4.39a5.51,5.51,0,0,0,2,.51c.11,0,.21,0,.32,0a5.31,5.31,0,0,0,2.19-.48A5.41,5.41,0,0,0,19.73,3H11.56A5.33,5.33,0,0,0,13.33,4.39Z"/><path class="cls-3" d="M7,5.71a5.11,5.11,0,0,0,1.12-.78s0,0,0,0,.11-.09.16-.15A5.1,5.1,0,0,0,9.46,3H7Z"/><path class="cls-3" d="M3.61,3H7V0H4.94A5.29,5.29,0,0,1,3.61,3Z"/><path class="cls-1" d="M3.61,3A5.29,5.29,0,0,0,4.94,0H2.11A2.46,2.46,0,0,1,.34,2.1,5.36,5.36,0,0,1,0,2.67V3Z"/><path class="cls-3" d="M.34,2.1A1.87,1.87,0,0,1,0,2.18v.49A5.36,5.36,0,0,0,.34,2.1Z"/><path class="cls-4" d="M2.11,0H0V2.18A1.87,1.87,0,0,0,.34,2.1,2.46,2.46,0,0,0,2.11,0Z"/><path class="cls-4" d="M4.49,14.84a5.6,5.6,0,0,1-.21.83,1.66,1.66,0,0,1,.22,0,5.28,5.28,0,0,1,2.5.65V13.72A5.37,5.37,0,0,1,4.49,14.84Z"/><path class="cls-3" d="M7,16.29a5.28,5.28,0,0,0-2.5-.65,1.66,1.66,0,0,0-.22,0,4.93,4.93,0,0,1-.27.67,5.34,5.34,0,0,1,1,3.09,5.51,5.51,0,0,1-.06.57H7Z"/><path class="cls-1" d="M5,19.43a5.34,5.34,0,0,0-1-3.09,5.33,5.33,0,0,1-2.13,2.28,2.5,2.5,0,0,1,.26,1.09,1.36,1.36,0,0,1,0,.29H4.94A5.51,5.51,0,0,0,5,19.43Z"/><path class="cls-3" d="M7,6.37a3.75,3.75,0,0,1-1.93.8,5.2,5.2,0,0,1,.07.69A5.38,5.38,0,0,1,4.72,10a3.39,3.39,0,0,1,.14.91,3.33,3.33,0,0,1-.5,1.73A5.46,5.46,0,0,1,4.57,14a5.7,5.7,0,0,1-.08.84A5.37,5.37,0,0,0,7,13.72Z"/><path class="cls-5" d="M.52,17.38a2.51,2.51,0,0,1,1.36,1.24A5.33,5.33,0,0,0,4,16.34a4.93,4.93,0,0,0,.27-.67,5.6,5.6,0,0,0,.21-.83A5.7,5.7,0,0,0,4.57,14a5.46,5.46,0,0,0-.21-1.41A3.34,3.34,0,0,1,1.5,14.21a3.5,3.5,0,0,1-.8-.1A5,5,0,0,1,0,15.53v.94A5.48,5.48,0,0,1,.52,17.38Z"/><path class="cls-4" d="M4.72,10a5.38,5.38,0,0,0,.42-2.09,5.2,5.2,0,0,0-.07-.69,3,3,0,0,1-.43,0A3.78,3.78,0,0,1,1.4,5.36a5.52,5.52,0,0,1-.77-.67L0,4.75V7.87A3.29,3.29,0,0,1,1.5,7.5,3.35,3.35,0,0,1,4.72,10Z"/><path class="cls-1" d="M.7,14.11a3.46,3.46,0,0,1-.7-.26v1.68A5,5,0,0,0,.7,14.11Z"/><path class="cls-3" d="M.52,17.38A5.48,5.48,0,0,0,0,16.47v.78A2.83,2.83,0,0,1,.52,17.38Z"/><path class="cls-2" d="M1.5,14.21a3.34,3.34,0,0,0,2.86-1.62,3.33,3.33,0,0,0,.5-1.73A3.39,3.39,0,0,0,4.72,10,3.35,3.35,0,0,0,1.5,7.5,3.29,3.29,0,0,0,0,7.87v6a3.46,3.46,0,0,0,.7.26A3.5,3.5,0,0,0,1.5,14.21Z"/><path class="cls-4" d="M1.88,18.62A2.51,2.51,0,0,0,.52,17.38,2.83,2.83,0,0,0,0,17.25V20H2.11a1.36,1.36,0,0,0,0-.29A2.5,2.5,0,0,0,1.88,18.62Z"/><path class="cls-2" d="M7,6.37V5.71a5.28,5.28,0,0,1-2.5.65,5.36,5.36,0,0,1-3.1-1A3.78,3.78,0,0,0,4.64,7.21a3,3,0,0,0,.43,0A3.75,3.75,0,0,0,7,6.37Z"/><path class="cls-3" d="M4.5,6.36A5.28,5.28,0,0,0,7,5.71V3H3.61a5.3,5.3,0,0,1-3,1.69,5.52,5.52,0,0,0,.77.67A5.36,5.36,0,0,0,4.5,6.36Z"/><path class="cls-1" d="M3.61,3H0V4.75l.63-.06A5.3,5.3,0,0,0,3.61,3Z"/></g></g></g></svg>