<svg xmlns="http://www.w3.org/2000/svg" viewBox="0 0 50.97 29.15"><defs><style>.cls-1{fill:none;}</style></defs><g id="Layer_2" data-name="Layer 2"><g id="icons"><circle class="cls-1" cx="25.97" cy="10.65" r="4.5"/><path class="cls-1" d="M39,12.65a13,13,0,0,1-26,0,13.33,13.33,0,0,1,.35-3,45.05,45.05,0,0,0-9.53,7C7,19.74,15.86,27.15,26,27.15s18.94-7.41,22.19-10.51a45.8,45.8,0,0,0-9.53-7A12.76,12.76,0,0,1,39,12.65Z"/><path d="M47.87,13.67,51,10.58,49.54,9.17l-3.22,3.21c-1-.79-2.13-1.63-3.38-2.46l2.22-3.84-1.74-1L41.25,8.85a38.17,38.17,0,0,0-3.6-1.91l-.76-.35.21-.65,1.1-3.36L36.3,2,35,5.85a28.05,28.05,0,0,0-4.9-1.33l.8-4.14L29,0l-.83,4.25c-.71-.06-1.43-.1-2.17-.1-.5,0-1,0-1.5,0v-4h-2V4.41a28.48,28.48,0,0,0-3.23.69L17.34,1l-1.82.83,1.8,3.91c-.51.18-1,.37-1.51.58s-1,.41-1.45.63l0,0L12.09,3,10.36,4l2.2,3.82c-1,.53-2,1.09-2.85,1.66L6.41,6.17,5,7.58l3,3c-1.32.93-2.49,1.85-3.48,2.69L1.41,10.17,0,11.58l3,3c-1.32,1.22-2.06,2-2.06,2s11.2,12.5,25,12.5,25-12.5,25-12.5A36.93,36.93,0,0,0,47.87,13.67Zm-17.4-3A4.5,4.5,0,1,1,26,6.15,4.5,4.5,0,0,1,30.47,10.65ZM26,27.15C15.86,27.15,7,19.74,3.79,16.65a45.05,45.05,0,0,1,9.53-7,13.33,13.33,0,0,0-.35,3,13,13,0,0,0,26,0,12.76,12.76,0,0,0-.34-3,45.8,45.8,0,0,1,9.53,7C44.91,19.74,36.09,27.15,26,27.15Z"/></g></g></svg>