<svg xmlns="http://www.w3.org/2000/svg" viewBox="0 0 50.97 29.15"><g id="Layer_2" data-name="Layer 2"><g id="icons"><path d="M51,12.5S39.78,0,26,0,1,12.5,1,12.5s.74.82,2.06,2l-3,3L1.41,19l3.12-3.11c1,.84,2.16,1.76,3.48,2.69l-3,3L6.41,23l3.3-3.29c.9.57,1.85,1.13,2.85,1.67l-2.2,3.82,1.73,1,2.27-3.93a31,31,0,0,0,3,1.2l-1.8,3.92,1.82.83L19.24,24a24.7,24.7,0,0,0,3.23.69V29h2V25c.5,0,1,.05,1.5.05.74,0,1.46,0,2.17-.11L29,29.15l2-.39-.8-4.13A29,29,0,0,0,35,23.3l1.27,3.89,1.9-.62-1.31-4a37.16,37.16,0,0,0,4.36-2.25l2.17,3.77,1.74-1-2.22-3.84c1.25-.83,2.39-1.67,3.38-2.47L49.54,20,51,18.56l-3.08-3.08A36.93,36.93,0,0,0,51,12.5Z"/></g></g></svg>