<svg id="mask" class="svg" xmlns="http://www.w3.org/2000/svg" viewBox="0 0 304.62 333.02">
<path id="path--0" class="svg__path" d="M194,0c-11,0-26.92,5.75-35.38,12.79l-2.92,2.42c-8.46,7-22.29,14.27-30.72,16.07s-19.53,8.55-24.66,15S83.08,59.78,73.35,62a273.64,273.64,0,0,1-31.5,5c-7.6.57-15.46,9.89-17.46,20.7L22.65,97c-2,10.81-8.81,26-15.13,33.84S-1.71,152.43,1,161.5a209.32,209.32,0,0,1,6.63,32.18c.91,8.62,7.21,19.42,14,24S34.18,235,34.35,246v.66c.18,11,5,25.27,10.81,31.71S60.92,290.52,67.35,291s18.18,7.2,26.11,14.82l1.8,1.73c7.93,7.62,19.9,17.13,26.6,21.13s20.65,5.48,31,3.28l34.17-7.28c8.44-1.8,23.13-1.8,32.66,0s21.42-4.73,26.42-14.53l1.18-2.29c5-9.8,9.24-25.26,9.41-34.36s2.19-25.34,4.48-36.1l1.67-7.88c2.29-10.76,12.2-19.7,22-19.88s18.6-7.38,19.5-16-1.06-22-4.36-29.68-6.22-21.5-6.49-30.67-5-19.75-10.5-23.5-13.7-15-18.2-25.08l-.26-.59A238.84,238.84,0,0,1,252,46.4l-.64-2.88c-2.4-10.74-11.64-24.81-20.54-31.28l-.65-.48C221.31,5.29,205,0,194,0Z"/>
<path id="path--1" class="svg__path" d="M221.5,4.9A198.38,198.38,0,0,0,189,23.4c-8.25,6.05-19.05,18-24,26.5s-17.36,18.84-27.57,22.93L134.57,74c-10.21,4.08-26.83,3.85-36.92-.52L88,69.26c-10.09-4.37-27.27-8.83-38.16-9.91s-26.18,4.41-34,12.19l-1.72,1.72C6.36,81,0,96.4,0,107.4v4c0,11,3.87,28.12,8.6,38l2.8,5.89c4.73,9.93,6.35,23.23,3.6,29.56s-2.3,17.8,1,25.5,5.27,23,4.37,33.93l-.74,9.13c-.9,11,6.07,24.6,15.48,30.29L38.89,286c9.41,5.7,25.88,10.36,36.61,10.36s24.9.22,31.5.5,17.85,3.2,25,6.5,20.88,5.77,30.5,5.5S187.64,313.15,197,319l3,1.88c9.35,5.81,25.84,12.2,36.65,14.22l3.68.68c10.81,2,25.06-3.54,31.66-12.34l9-12c6.6-8.8,11.77-23.65,11.5-33a270.07,270.07,0,0,0-3.5-33.5c-1.65-9.08-1.05-25.29,1.34-36l1.32-6c2.39-10.74,7-22.45,10.34-26s6-12.13,6-19-4.95-16.55-11-21.5-5.46-16.09,1.31-24.76l.38-.48c6.77-8.67,12.45-24.76,12.63-35.76l.36-23c.18-11-6.36-26-14.52-33.4l-1.32-1.19c-8.16-7.37-23.72-14.88-34.57-16.69L258.73.69C247.88-1.12,231.12.77,221.5,4.9Z"/>
<path id="path--2" class="svg__path" d="M202.51,7.49c-13.75-10.72-29.27-9.82-34.5,2s-18.95,23.08-30.5,25-26.4-1.22-33-7-20.55-7.12-31-3-23.5,15.38-29,25S28,70.82,20,75.49,3.71,91.64,1.51,101s-2,24.43.5,33.5,6.53,21.68,9,28,5,19.15,5.5,28.5,1.23,24.88,1.5,34.5,5.23,24.25,11,32.5,15,13.88,20.5,12.5l24-6c7.7-1.92,19.18-2.15,25.5-.5s17.13,9.3,24,17,18.58,26.38,26,41.5,28.65,29.64,47.17,32.24l3.67.52c18.51,2.61,44.91-5.61,58.66-18.26s23.43-35.6,21.5-51-7.55-31.82-12.5-36.5S255.14,234.24,251,226s-7.27-22.2-7-31,5-19.82,10.5-24.5,11.35-17.05,13-27.5,8.63-26.2,15.5-35,7.78-21.62,2-28.5-18.6-10.47-28.5-8S236,65,233,51.49,216.26,18.22,202.51,7.49Z"/>
</svg>