<svg class="svg" xmlns="http://www.w3.org/2000/svg" viewBox="0 0 288.82 355.73"><path id="mask--2" class="svg__path" d="M202.51,7.49c-13.75-10.72-29.27-9.82-34.5,2s-18.95,23.08-30.5,25-26.4-1.22-33-7-20.55-7.12-31-3-23.5,15.38-29,25S28,70.82,20,75.49,3.71,91.64,1.51,101s-2,24.43.5,33.5,6.53,21.68,9,28,5,19.15,5.5,28.5,1.23,24.88,1.5,34.5,5.23,24.25,11,32.5,15,13.88,20.5,12.5l24-6c7.7-1.92,19.18-2.15,25.5-.5s17.13,9.3,24,17,18.58,26.38,26,41.5,28.65,29.64,47.17,32.24l3.67.52c18.51,2.61,44.91-5.61,58.66-18.26s23.43-35.6,21.5-51-7.55-31.82-12.5-36.5S255.14,234.24,251,226s-7.27-22.2-7-31,5-19.82,10.5-24.5,11.35-17.05,13-27.5,8.63-26.2,15.5-35,7.78-21.62,2-28.5-18.6-10.47-28.5-8S236,65,233,51.49,216.26,18.22,202.51,7.49Z"/></svg>