<svg class="svg" xmlns="http://www.w3.org/2000/svg" viewBox="0 0 311.69 336.15"><path id="mask--1" class="svg__path" d="M221.5,4.9A198.38,198.38,0,0,0,189,23.4c-8.25,6.05-19.05,18-24,26.5s-17.36,18.84-27.57,22.93L134.57,74c-10.21,4.08-26.83,3.85-36.92-.52L88,69.26c-10.09-4.37-27.27-8.83-38.16-9.91s-26.18,4.41-34,12.19l-1.72,1.72C6.36,81,0,96.4,0,107.4v4c0,11,3.87,28.12,8.6,38l2.8,5.89c4.73,9.93,6.35,23.23,3.6,29.56s-2.3,17.8,1,25.5,5.27,23,4.37,33.93l-.74,9.13c-.9,11,6.07,24.6,15.48,30.29L38.89,286c9.41,5.7,25.88,10.36,36.61,10.36s24.9.22,31.5.5,17.85,3.2,25,6.5,20.88,5.77,30.5,5.5S187.64,313.15,197,319l3,1.88c9.35,5.81,25.84,12.2,36.65,14.22l3.68.68c10.81,2,25.06-3.54,31.66-12.34l9-12c6.6-8.8,11.77-23.65,11.5-33a270.07,270.07,0,0,0-3.5-33.5c-1.65-9.08-1.05-25.29,1.34-36l1.32-6c2.39-10.74,7-22.45,10.34-26s6-12.13,6-19-4.95-16.55-11-21.5-5.46-16.09,1.31-24.76l.38-.48c6.77-8.67,12.45-24.76,12.63-35.76l.36-23c.18-11-6.36-26-14.52-33.4l-1.32-1.19c-8.16-7.37-23.72-14.88-34.57-16.69L258.73.69C247.88-1.12,231.12.77,221.5,4.9Z"/></svg>